<mxfile host="app.diagrams.net" modified="2023-11-26T14:32:04.747Z" agent="Mozilla/5.0 (Windows NT 10.0; Win64; x64) AppleWebKit/537.36 (KHTML, like Gecko) Chrome/118.0.0.0 Safari/537.36 OPR/104.0.0.0 (Edition std-1)" etag="ZmkgoEfNM1J_goP6TlKo" version="22.1.4" type="github">
  <diagram name="Seite-1" id="SKxm_ANnG7jXrhAAKQ5n">
    <mxGraphModel dx="1009" dy="542" grid="1" gridSize="10" guides="1" tooltips="1" connect="1" arrows="1" fold="1" page="1" pageScale="1" pageWidth="827" pageHeight="1169" math="0" shadow="0">
      <root>
        <mxCell id="0" />
        <mxCell id="1" parent="0" />
        <mxCell id="XEmNF3JNyI4nH4bgcuXp-1" value="&lt;p style=&quot;margin: 0px ; margin-top: 4px ; text-align: center&quot;&gt;&lt;br&gt;&lt;b&gt;Befehlssatz-Item&lt;/b&gt;&lt;/p&gt;" style="verticalAlign=top;align=left;overflow=fill;fontSize=12;fontFamily=Helvetica;html=1;" vertex="1" parent="1">
          <mxGeometry x="200" y="215" width="618" height="569" as="geometry" />
        </mxCell>
        <mxCell id="XEmNF3JNyI4nH4bgcuXp-4" style="edgeStyle=orthogonalEdgeStyle;rounded=1;orthogonalLoop=1;jettySize=auto;html=1;endArrow=none;endFill=0;" edge="1" parent="1" source="XEmNF3JNyI4nH4bgcuXp-6" target="XEmNF3JNyI4nH4bgcuXp-12">
          <mxGeometry relative="1" as="geometry">
            <Array as="points">
              <mxPoint x="140" y="500" />
              <mxPoint x="140" y="723" />
            </Array>
          </mxGeometry>
        </mxCell>
        <mxCell id="XEmNF3JNyI4nH4bgcuXp-6" value="Spieler" style="shape=umlActor;verticalLabelPosition=bottom;labelBackgroundColor=#ffffff;verticalAlign=top;html=1;outlineConnect=0;" vertex="1" parent="1">
          <mxGeometry x="50" y="469.5" width="30" height="60" as="geometry" />
        </mxCell>
        <mxCell id="XEmNF3JNyI4nH4bgcuXp-12" value="Befehlssatz modifizieren" style="ellipse;whiteSpace=wrap;html=1;fontColor=#FFFFFF;fillColor=#008e74;" vertex="1" parent="1">
          <mxGeometry x="460" y="688" width="140" height="70" as="geometry" />
        </mxCell>
      </root>
    </mxGraphModel>
  </diagram>
</mxfile>
